<svg width="27" height="27" viewBox="0 0 27 27" fill="none" xmlns="http://www.w3.org/2000/svg">
<path d="M1.98612 4.33336H23.1169C25.0308 4.33336 26.4127 6.09727 25.8877 7.87228L23.5905 15.6501C23.2363 16.8446 22.1057 17.6668 20.8196 17.6668H8.10006C6.81255 17.6668 5.6806 16.8432 5.32781 15.6501L1.98612 4.33336ZM1.98612 4.33336L1 1M19.7502 26.0002C20.3027 26.0002 20.8326 25.7807 21.2233 25.39C21.614 24.9993 21.8335 24.4694 21.8335 23.9169C21.8335 23.3643 21.614 22.8344 21.2233 22.4437C20.8326 22.053 20.3027 21.8335 19.7502 21.8335C19.1976 21.8335 18.6677 22.053 18.277 22.4437C17.8863 22.8344 17.6668 23.3643 17.6668 23.9169C17.6668 24.4694 17.8863 24.9993 18.277 25.39C18.6677 25.7807 19.1976 26.0002 19.7502 26.0002ZM8.63895 26.0002C9.19149 26.0002 9.7214 25.7807 10.1121 25.39C10.5028 24.9993 10.7223 24.4694 10.7223 23.9169C10.7223 23.3643 10.5028 22.8344 10.1121 22.4437C9.7214 22.053 9.19149 21.8335 8.63895 21.8335C8.08641 21.8335 7.55651 22.053 7.1658 22.4437C6.7751 22.8344 6.5556 23.3643 6.5556 23.9169C6.5556 24.4694 6.7751 24.9993 7.1658 25.39C7.55651 25.7807 8.08641 26.0002 8.63895 26.0002Z" stroke="black" stroke-width="1.5" stroke-linecap="round" stroke-linejoin="round"/>
</svg>
