<svg width="25" height="23" viewBox="0 0 25 23" fill="none" xmlns="http://www.w3.org/2000/svg">
<path d="M12.5 22.2278L11.4472 21.2764C9.18055 19.206 7.30555 17.4333 5.82222 15.9583C4.33889 14.4833 3.16806 13.1833 2.30972 12.0583C1.45139 10.9333 0.851852 9.91435 0.511111 9.00139C0.17037 8.08842 0 7.1713 0 6.25C0 4.48333 0.6 3 1.8 1.8C3 0.6 4.48333 0 6.25 0C7.47222 0 8.61806 0.3125 9.6875 0.9375C10.7569 1.5625 11.6944 2.4713 12.5 3.66389C13.3056 2.4713 14.2431 1.5625 15.3125 0.9375C16.3819 0.3125 17.5278 0 18.75 0C20.5167 0 22 0.6 23.2 1.8C24.4 3 25 4.48333 25 6.25C25 7.17222 24.8296 8.08889 24.4889 9C24.1481 9.91111 23.5486 10.9306 22.6903 12.0583C21.8319 13.1861 20.6653 14.4861 19.1903 15.9583C17.7153 17.4306 15.8356 19.2037 13.5514 21.2778L12.5 22.2278ZM12.5 20.3472C14.7222 18.338 16.5509 16.6176 17.9861 15.1861C19.4213 13.7546 20.5556 12.5116 21.3889 11.4569C22.2222 10.4023 22.8009 9.46944 23.125 8.65833C23.4491 7.84722 23.6111 7.04444 23.6111 6.25C23.6111 4.86111 23.1481 3.7037 22.2222 2.77778C21.2963 1.85185 20.1389 1.38889 18.75 1.38889C17.6444 1.38889 16.6241 1.70463 15.6889 2.33611C14.7537 2.96759 13.9167 3.91806 13.1778 5.1875H11.8222C11.0648 3.90046 10.2231 2.94537 9.29722 2.32222C8.3713 1.7 7.35556 1.38889 6.25 1.38889C4.87963 1.38889 3.72685 1.85185 2.79167 2.77778C1.85648 3.7037 1.38889 4.86111 1.38889 6.25C1.38889 7.04259 1.55093 7.84537 1.875 8.65833C2.19907 9.4713 2.77778 10.4042 3.61111 11.4569C4.44444 12.5097 5.5787 13.7481 7.01389 15.1722C8.44907 16.5963 10.2778 18.3213 12.5 20.3472Z" fill="black"/>
</svg>
