<svg width="141" height="31" viewBox="0 0 141 31" fill="none" xmlns="http://www.w3.org/2000/svg">
<path d="M9.36364 24H0.761364V0.727272H9.35227C11.7235 0.727272 13.7652 1.19318 15.4773 2.125C17.197 3.04924 18.5227 4.38257 19.4545 6.125C20.3864 7.85985 20.8523 9.93561 20.8523 12.3523C20.8523 14.7765 20.3864 16.8598 19.4545 18.6023C18.5303 20.3447 17.2083 21.6818 15.4886 22.6136C13.7689 23.5379 11.7273 24 9.36364 24ZM6.38636 19.2045H9.14773C10.4508 19.2045 11.553 18.9848 12.4545 18.5455C13.3636 18.0985 14.0492 17.375 14.5114 16.375C14.9811 15.3674 15.2159 14.0265 15.2159 12.3523C15.2159 10.678 14.9811 9.3447 14.5114 8.35227C14.0417 7.35227 13.3485 6.63258 12.4318 6.19318C11.5227 5.74621 10.4015 5.52273 9.06818 5.52273H6.38636V19.2045ZM32.2955 24.3295C30.4697 24.3295 28.8939 23.9697 27.5682 23.25C26.25 22.5227 25.2348 21.4886 24.5227 20.1477C23.8182 18.7992 23.4659 17.197 23.4659 15.3409C23.4659 13.5379 23.822 11.9621 24.5341 10.6136C25.2462 9.25758 26.25 8.20454 27.5455 7.45454C28.8409 6.69697 30.3674 6.31818 32.125 6.31818C33.3674 6.31818 34.5038 6.51136 35.5341 6.89773C36.5644 7.28409 37.4545 7.85606 38.2045 8.61364C38.9545 9.37121 39.5379 10.3068 39.9545 11.4205C40.3712 12.5265 40.5795 13.7955 40.5795 15.2273V16.6136H25.4091V13.3864H35.4091C35.4015 12.7955 35.2614 12.2689 34.9886 11.8068C34.7159 11.3447 34.3409 10.9848 33.8636 10.7273C33.3939 10.4621 32.8523 10.3295 32.2386 10.3295C31.6174 10.3295 31.0606 10.4697 30.5682 10.75C30.0758 11.0227 29.6856 11.3977 29.3977 11.875C29.1098 12.3447 28.9583 12.8788 28.9432 13.4773V16.7614C28.9432 17.4735 29.0833 18.0985 29.3636 18.6364C29.6439 19.1667 30.0417 19.5795 30.5568 19.875C31.072 20.1705 31.6856 20.3182 32.3977 20.3182C32.8902 20.3182 33.3371 20.25 33.7386 20.1136C34.1402 19.9773 34.4848 19.7765 34.7727 19.5114C35.0606 19.2462 35.2765 18.9205 35.4205 18.5341L40.5227 18.6818C40.3106 19.8258 39.8447 20.822 39.125 21.6705C38.4129 22.5114 37.4773 23.1667 36.3182 23.6364C35.1591 24.0985 33.8182 24.3295 32.2955 24.3295ZM59.8807 6.54545L53.892 24H47.5284L41.5511 6.54545H47.4034L50.6193 18.5682H50.8011L54.0284 6.54545H59.8807ZM70.6136 24H62.0114V0.727272H70.6023C72.9735 0.727272 75.0152 1.19318 76.7273 2.125C78.447 3.04924 79.7727 4.38257 80.7045 6.125C81.6364 7.85985 82.1023 9.93561 82.1023 12.3523C82.1023 14.7765 81.6364 16.8598 80.7045 18.6023C79.7803 20.3447 78.4583 21.6818 76.7386 22.6136C75.0189 23.5379 72.9773 24 70.6136 24ZM67.6364 19.2045H70.3977C71.7008 19.2045 72.803 18.9848 73.7045 18.5455C74.6136 18.0985 75.2992 17.375 75.7614 16.375C76.2311 15.3674 76.4659 14.0265 76.4659 12.3523C76.4659 10.678 76.2311 9.3447 75.7614 8.35227C75.2917 7.35227 74.5985 6.63258 73.6818 6.19318C72.7727 5.74621 71.6515 5.52273 70.3182 5.52273H67.6364V19.2045ZM93.5341 24.3295C91.7008 24.3295 90.125 23.9545 88.8068 23.2045C87.4962 22.447 86.4848 21.3939 85.7727 20.0455C85.0682 18.6894 84.7159 17.1174 84.7159 15.3295C84.7159 13.5341 85.0682 11.9621 85.7727 10.6136C86.4848 9.25758 87.4962 8.20454 88.8068 7.45454C90.125 6.69697 91.7008 6.31818 93.5341 6.31818C95.3674 6.31818 96.9394 6.69697 98.25 7.45454C99.5682 8.20454 100.58 9.25758 101.284 10.6136C101.996 11.9621 102.352 13.5341 102.352 15.3295C102.352 17.1174 101.996 18.6894 101.284 20.0455C100.58 21.3939 99.5682 22.447 98.25 23.2045C96.9394 23.9545 95.3674 24.3295 93.5341 24.3295ZM93.5682 20.1364C94.2348 20.1364 94.7992 19.9318 95.2614 19.5227C95.7235 19.1136 96.0758 18.5455 96.3182 17.8182C96.5682 17.0909 96.6932 16.25 96.6932 15.2955C96.6932 14.3258 96.5682 13.4773 96.3182 12.75C96.0758 12.0227 95.7235 11.4545 95.2614 11.0455C94.7992 10.6364 94.2348 10.4318 93.5682 10.4318C92.8788 10.4318 92.2955 10.6364 91.8182 11.0455C91.3485 11.4545 90.9886 12.0227 90.7386 12.75C90.4962 13.4773 90.375 14.3258 90.375 15.2955C90.375 16.25 90.4962 17.0909 90.7386 17.8182C90.9886 18.5455 91.3485 19.1136 91.8182 19.5227C92.2955 19.9318 92.8788 20.1364 93.5682 20.1364ZM105.199 30.5455V6.54545H110.699V9.53409H110.869C111.097 9.00379 111.419 8.49242 111.835 8C112.259 7.50758 112.797 7.10606 113.449 6.79545C114.108 6.47727 114.896 6.31818 115.812 6.31818C117.025 6.31818 118.157 6.63636 119.21 7.27273C120.271 7.90909 121.127 8.89015 121.778 10.2159C122.43 11.5417 122.756 13.2311 122.756 15.2841C122.756 17.2614 122.441 18.9167 121.812 20.25C121.191 21.5833 120.35 22.5833 119.29 23.25C118.237 23.9167 117.066 24.25 115.778 24.25C114.9 24.25 114.138 24.1061 113.494 23.8182C112.85 23.5303 112.309 23.1515 111.869 22.6818C111.438 22.2121 111.104 21.7083 110.869 21.1705H110.756V30.5455H105.199ZM110.642 15.2727C110.642 16.2121 110.767 17.0303 111.017 17.7273C111.275 18.4242 111.642 18.9659 112.119 19.3523C112.604 19.7311 113.184 19.9205 113.858 19.9205C114.54 19.9205 115.119 19.7311 115.597 19.3523C116.074 18.9659 116.434 18.4242 116.676 17.7273C116.926 17.0303 117.051 16.2121 117.051 15.2727C117.051 14.3333 116.926 13.5189 116.676 12.8295C116.434 12.1402 116.074 11.6061 115.597 11.2273C115.127 10.8485 114.547 10.6591 113.858 10.6591C113.176 10.6591 112.597 10.8447 112.119 11.2159C111.642 11.5871 111.275 12.1174 111.017 12.8068C110.767 13.4962 110.642 14.3182 110.642 15.2727ZM125.713 24V20.8295L133.804 10.9773V10.8636H125.997V6.54545H140.429V10.0227L132.929 19.5682V19.6818H140.702V24H125.713Z" fill="black"/>
</svg>
