<svg width="56" height="54" viewBox="0 0 56 54" fill="none" xmlns="http://www.w3.org/2000/svg">
<path d="M54.5268 8.72586L28.6809 0.110543C28.2388 -0.0368478 27.7607 -0.0368478 27.3186 0.110543L1.47268 8.72586C1.04381 8.86882 0.670802 9.14311 0.40649 9.50986C0.142179 9.87661 -3.34981e-05 10.3172 5.91861e-09 10.7693V32.3076C5.91861e-09 32.8788 0.22692 33.4267 0.630841 33.8306C1.03476 34.2345 1.5826 34.4614 2.15383 34.4614C2.72506 34.4614 3.27289 34.2345 3.67681 33.8306C4.08073 33.4267 4.30766 32.8788 4.30766 32.3076V13.7577L13.351 16.7704C10.9483 20.6522 10.1843 25.3287 11.2267 29.7733C12.269 34.2179 15.0326 38.0672 18.9106 40.476C14.0645 42.3767 9.8753 45.8148 6.81148 50.5155C6.65214 50.7523 6.54146 51.0185 6.48588 51.2984C6.4303 51.5784 6.43092 51.8666 6.48771 52.1464C6.5445 52.4261 6.65633 52.6918 6.81669 52.9279C6.97705 53.164 7.18275 53.3659 7.42183 53.5219C7.66091 53.6778 7.9286 53.7847 8.20934 53.8362C8.49008 53.8878 8.77827 53.8831 9.05716 53.8223C9.33605 53.7615 9.60007 53.6459 9.83389 53.4821C10.0677 53.3184 10.2666 53.1098 10.4191 52.8686C14.4764 46.644 20.8841 43.0767 27.9998 43.0767C35.1155 43.0767 41.5231 46.644 45.5804 52.8686C45.8963 53.3381 46.3843 53.6644 46.9389 53.777C47.4934 53.8896 48.07 53.7794 48.544 53.4702C49.018 53.1611 49.3513 52.6778 49.4718 52.1249C49.5923 51.572 49.4904 50.9939 49.188 50.5155C46.1242 45.8148 41.9189 42.3767 37.0889 40.476C40.9632 38.0673 43.7242 34.2205 44.7664 29.7792C45.8086 25.3379 45.0469 20.6645 42.6485 16.7839L54.5268 12.8262C54.9558 12.6833 55.3289 12.4091 55.5933 12.0423C55.8577 11.6756 56 11.2349 56 10.7828C56 10.3306 55.8577 9.88997 55.5933 9.52321C55.3289 9.15645 54.9558 8.8822 54.5268 8.73932V8.72586ZM40.9227 25.8461C40.9233 27.8892 40.4395 29.9032 39.5109 31.7231C38.5824 33.543 37.2356 35.1167 35.581 36.3153C33.9265 37.5139 32.0114 38.3031 29.9927 38.6181C27.9741 38.9332 25.9096 38.7652 23.9685 38.1279C22.0274 37.4905 20.265 36.4021 18.826 34.9517C17.3871 33.5014 16.3125 31.7306 15.6904 29.7845C15.0683 27.8385 14.9165 25.7727 15.2474 23.7566C15.5784 21.7405 16.3826 19.8316 17.5941 18.1865L27.3186 21.4173C27.7607 21.5647 28.2388 21.5647 28.6809 21.4173L38.4054 18.1865C40.0418 20.405 40.924 23.0895 40.9227 25.8461Z" fill="black"/>
</svg>
